<svg width="257" height="51" viewBox="0 0 257 51" fill="none" xmlns="http://www.w3.org/2000/svg">
<path fill-rule="evenodd" clip-rule="evenodd" d="M35.3224 0.0523376C35.3141 0.0605794 31.1492 0.105511 26.0672 0.152303C13.6939 0.266359 12.705 0.290819 12.6042 0.48623C12.4838 0.719394 11.6011 2.27284 11.1418 3.06007C10.9141 3.44983 10.6459 3.92014 10.5453 4.10466C10.2032 4.73369 10.0311 5.03731 9.74219 5.52278C9.58306 5.78944 9.21402 6.44427 8.92158 6.97786C8.62914 7.51145 8.34826 7.99852 8.29745 8.0602C8.24665 8.12161 8.02652 8.50792 7.80853 8.91841C7.59054 9.32891 7.38573 9.69846 7.35321 9.73994C7.32095 9.78141 6.93148 10.453 6.48798 11.2325C6.04421 12.012 5.59453 12.8008 5.4889 12.9856C5.20533 13.4804 5.04675 13.7588 4.55379 14.6273C4.30919 15.0583 4.0775 15.4614 4.03906 15.523C4.00063 15.5845 3.75146 16.0213 3.48536 16.4932C2.91204 17.5091 1.48236 20.0199 0.858773 21.1051C0.615789 21.5279 0.417156 21.8876 0.417156 21.9049C0.417156 21.9219 0.315285 22.0947 0.190568 22.289C-0.113431 22.7633 -0.113968 22.762 0.638099 23.9932C0.853397 24.346 3.61061 28.9519 4.32371 30.1501C4.67797 30.7454 5.22092 31.652 5.53029 32.1651C5.8394 32.6783 6.37993 33.5851 6.73097 34.1801C7.08227 34.7754 7.54136 35.5477 7.75155 35.8966C7.96174 36.2456 8.51464 37.169 8.98018 37.949C9.44571 38.7288 10.279 40.1225 10.8319 41.0461C11.3845 41.9697 12.1064 43.1786 12.4362 43.7327C13.2735 45.1394 13.0472 45.0274 14.9411 44.9719C15.8125 44.9463 20.9052 44.8887 26.2584 44.844C31.6115 44.7991 36.7367 44.7406 37.6482 44.714L39.305 44.6656L39.5622 44.2179C39.7039 43.9714 39.8953 43.6356 39.9877 43.4716C40.3869 42.7628 43.7298 36.8949 44.0056 36.419C44.3757 35.7804 46.1967 32.5897 46.5187 32.016C46.8152 31.4872 48.8136 27.9828 49.3273 27.0906C49.4101 26.9467 49.8772 26.1242 50.3656 25.2619C50.8537 24.4 51.426 23.3926 51.6372 23.0231C52.0732 22.2609 52.0789 22.2298 51.8512 21.8506C51.4827 21.2375 50.6873 19.9042 50.0799 18.8812C49.7264 18.2862 49.244 17.4801 49.008 17.0903C48.5666 16.3608 47.7097 14.9222 46.741 13.2842C46.4375 12.7711 45.9629 11.982 45.6857 11.5303C45.4089 11.0788 45.0579 10.4913 44.9057 10.2243C44.7539 9.95741 44.5533 9.61684 44.4601 9.46716C44.3668 9.31774 44.0832 8.84743 43.8298 8.42257C43.2427 7.43781 42.1469 5.60679 41.2005 4.03021C40.7941 3.35279 40.1232 2.22791 39.7095 1.53002C39.2959 0.832386 38.904 0.202285 38.8389 0.130236C38.7381 0.0183067 35.4321 -0.0548061 35.3224 0.0523376ZM33.9543 3.84756C37.9041 3.89755 37.4418 3.8013 37.9291 4.67627C38.1498 5.0724 38.3812 5.4837 38.4435 5.59031C38.6623 5.96412 39.0722 6.68275 39.2564 7.01535C39.4504 7.36576 40.0525 8.41619 40.8605 9.81385C42.5982 12.8205 44.0265 15.3821 44.0265 15.4922C44.0265 15.5634 43.7827 16.0276 43.4846 16.5238C43.1866 17.0201 42.7471 17.751 42.5081 18.1485C42.2689 18.5457 42.0034 18.999 41.9174 19.1558C41.8316 19.3127 41.6228 19.6594 41.4529 19.926C41.2833 20.193 41.0672 20.5455 40.9726 20.7098C40.878 20.8738 40.4654 21.5717 40.0557 22.2603C39.6461 22.9492 39.2303 23.6543 39.1314 23.8276C39.0325 24.0009 38.7118 24.5457 38.4188 25.0381C38.1258 25.5307 37.7993 26.0813 37.6931 26.2619C37.5869 26.4421 37.413 26.6819 37.3066 26.7949L37.1131 26.9999L35.9487 26.9622C34.548 26.917 34.5908 26.939 34.1051 26.0151C33.6589 25.166 33.6653 25.1529 34.5389 25.1513C34.8603 25.1506 35.1235 25.1295 35.1235 25.1043C35.1235 25.0551 33.6825 22.4762 33.2729 21.7919C33.1377 21.5662 32.5087 20.4745 31.8749 19.3664C31.2414 18.2583 30.6256 17.1834 30.5063 16.9784C30.3869 16.7731 30.2536 16.5347 30.2098 16.4485C30.1367 16.3049 30.0448 16.2877 29.1064 16.2433C27.6224 16.1728 19.8988 16.1834 19.8534 16.256C19.8325 16.2898 20.0448 16.7181 20.3254 17.2076C20.606 17.697 21.2791 18.87 21.8215 19.8141C22.3636 20.7582 23.188 22.2024 23.6535 23.0231C24.1191 23.8441 24.5819 24.6417 24.6822 24.7956L24.8647 25.0756L26.1651 25.0764C27.8515 25.0777 27.7265 25.0275 28.2288 25.9053C28.8231 26.9438 28.983 26.8664 26.236 26.8664C23.5457 26.8664 23.8468 26.9576 23.278 25.971C23.1006 25.6631 22.8461 25.2266 22.7125 25.0009C22.5789 24.7751 22.3402 24.3553 22.1819 24.0679C22.0236 23.7805 21.7169 23.2432 21.5003 22.8739C21.0592 22.1223 21.0936 22.1827 19.9015 20.0754C19.4255 19.234 18.8576 18.2431 18.639 17.8738C17.1188 15.3018 17.1 15.2481 17.5007 14.6462C17.6429 14.4327 17.876 14.0472 18.0187 13.7896C18.1614 13.5322 18.4313 13.0696 18.6186 12.7618C19.1266 11.9267 20.8985 8.9559 21.0614 8.66611C21.1396 8.52732 21.2377 8.3593 21.2799 8.29283C21.3221 8.22637 21.5535 7.83634 21.7938 7.42584C22.0344 7.01535 22.2615 6.62905 22.2986 6.56763C22.3359 6.50595 22.5252 6.18691 22.7192 5.85857C22.9136 5.53022 23.1824 5.09181 23.317 4.88444C23.4514 4.67733 23.6334 4.36839 23.721 4.19824C23.9766 3.7024 23.821 3.72075 27.4278 3.76568C29.233 3.78801 32.1698 3.82497 33.9543 3.84756ZM25.0157 5.59722C24.9835 5.61796 24.6945 6.07126 24.3736 6.60485C24.053 7.13844 23.6788 7.75977 23.5423 7.98549C23.406 8.21121 23.2084 8.547 23.1039 8.73178C22.999 8.91655 22.6416 9.52086 22.3091 10.0752C21.9766 10.6293 21.4987 11.4351 21.2468 11.8661C20.9952 12.297 20.5708 13.0191 20.3036 13.4708C19.9776 14.0222 19.8475 14.307 19.9072 14.3386C19.9561 14.3644 22.2615 14.4024 25.0303 14.4229L30.0646 14.4601L30.2412 14.2267C30.3383 14.0983 30.5127 13.8252 30.6288 13.62C30.9223 13.1021 31.1293 12.7477 31.5524 12.0394C31.7529 11.7036 31.9728 11.3343 32.0408 11.2184C32.1378 11.0533 33.7954 8.26678 34.5187 7.05257C35.0829 6.10582 35.2783 5.72059 35.2224 5.66529C35.1552 5.59882 25.1184 5.53182 25.0157 5.59722ZM36.5142 7.2206C36.3182 7.53857 36.1003 7.89962 36.0293 8.02271C35.9586 8.14581 35.6788 8.61612 35.4079 9.06756C35.1367 9.519 34.8477 10.0061 34.7655 10.1496C34.6832 10.2935 34.5136 10.5787 34.3886 10.784C34.2636 10.9892 33.9131 11.5771 33.6099 12.0902C33.3068 12.603 32.8673 13.3419 32.6334 13.7319C32.3996 14.1219 32.0865 14.6592 31.9381 14.9259L31.6677 15.4111L32.4026 16.6798C32.8065 17.3774 33.4038 18.4186 33.7301 18.9931C34.0561 19.5679 34.5115 20.3594 34.7421 20.7523C34.9727 21.1453 35.5009 22.0761 35.9159 22.8208C36.3309 23.5657 36.7058 24.1762 36.7494 24.1775C36.8351 24.1801 36.9053 24.0735 37.7044 22.7248C38.4583 21.4521 39.0018 20.5349 39.562 19.5902C39.8297 19.1388 40.2925 18.3665 40.5906 17.8738C42.0891 15.3986 42.0786 15.422 41.8372 15.1125C41.8053 15.0716 41.4825 14.5173 41.1201 13.8811C40.7578 13.2448 40.3721 12.5695 40.2632 12.3805C40.1546 12.1912 39.3717 10.8228 38.5234 9.33928C37.6754 7.85601 36.9563 6.64207 36.926 6.64207C36.8953 6.64207 36.7099 6.90236 36.5142 7.2206ZM17.029 18.3776C17.2123 18.5231 17.9302 19.7875 17.9047 19.9197C17.8862 20.0151 17.7523 20.0422 17.2155 20.0598C16.632 20.0786 16.5551 20.0967 16.5971 20.2047C16.6234 20.2725 17.0556 21.0352 17.5577 21.8995C18.0595 22.7639 18.5468 23.6053 18.6407 23.7694C18.7345 23.9337 19.1245 24.6053 19.5072 25.2619C19.8902 25.9189 20.5267 27.0161 20.9221 27.7002C21.4143 28.5526 21.6903 28.9577 21.7992 28.9867C22.0784 29.0609 31.8671 29.0359 31.9142 28.9609C31.9381 28.9224 31.7072 28.4606 31.4008 27.9347C31.0944 27.4088 30.6315 26.6091 30.3719 26.1576C30.1125 25.7062 29.6714 24.9504 29.3919 24.4784C29.1123 24.0065 28.7817 23.4355 28.6575 23.2097C28.4667 22.863 27.9721 22.0078 27.1255 20.5604C26.8389 20.0709 26.8559 20.0754 25.3574 20.0741C24.608 20.0736 23.957 20.0483 23.9105 20.0183C23.7557 19.9175 23.0388 18.5925 23.0654 18.4561C23.0988 18.2848 27.7598 18.2947 27.9415 18.4662C28.0307 18.5507 28.1847 18.8075 29.0844 20.3737C29.5174 21.1275 31.6747 24.8376 32.4039 26.0829C33.1049 27.2801 34.3685 29.4815 34.5128 29.758C34.5977 29.9204 34.2865 30.5779 33.7624 31.3444C33.6922 31.447 33.5073 31.7661 33.3516 32.0532C33.196 32.3406 32.9912 32.6931 32.8969 32.837C32.8022 32.9805 32.4028 33.6521 32.0093 34.3296C31.6158 35.0067 30.8705 36.2829 30.3531 37.1653C29.8359 38.0479 29.1717 39.1813 28.8777 39.6841C28.5834 40.1868 28.2302 40.7824 28.0926 41.0076L27.8429 41.4167L21.1122 41.3994C13.545 41.3798 14.3554 41.4452 14.0264 40.8268C13.9484 40.6805 13.6504 40.1578 13.3636 39.6655C12.1664 37.6082 11.3756 36.2446 10.7886 35.225C10.4459 34.6297 9.61881 33.2036 8.95061 32.0556C8.2824 30.9079 7.73569 29.8986 7.73569 29.8133C7.73569 29.7277 8.01819 29.1893 8.36358 28.6166C8.70924 28.044 9.09817 27.3907 9.22827 27.165C9.35863 26.9393 9.63871 26.4525 9.85105 26.0829C10.0634 25.7137 10.3486 25.2266 10.4846 25.0009C10.6206 24.7751 11.0453 24.0531 11.4283 23.3964C11.8113 22.7397 12.1511 22.1686 12.1833 22.1277C12.2158 22.0867 12.3276 21.9019 12.4317 21.7172C12.536 21.5324 12.7496 21.1631 12.9066 20.8962C13.5184 19.8564 13.8995 19.2066 14.0401 18.9652C14.1205 18.8267 14.2659 18.6166 14.3629 18.4989L14.5395 18.2843H15.7254C16.5613 18.2843 16.9462 18.3117 17.029 18.3776ZM14.8013 21.2134C14.7091 21.3598 14.5188 21.6823 13.9974 22.5754C13.9256 22.6985 13.57 23.3031 13.2077 23.9188C12.8451 24.5345 12.4801 25.1556 12.3967 25.2994C12.2379 25.573 11.7256 26.4427 10.5031 28.5153C9.6336 29.9898 9.65671 29.7136 10.3104 30.8337C10.6061 31.3402 11.6624 33.1653 12.658 34.8892C14.5156 38.1062 14.8061 38.5834 14.9061 38.5834C14.9378 38.5834 15.2271 38.1383 15.5485 37.5944C15.87 37.0507 16.2428 36.4208 16.3769 36.1951C16.5111 35.9694 16.807 35.4656 17.0344 35.0758C17.2618 34.6858 17.644 34.031 17.8838 33.6205C18.1232 33.21 18.4334 32.6985 18.5729 32.4836C18.7124 32.2686 18.8267 32.0763 18.8267 32.0561C18.8267 32.0359 19.0981 31.5603 19.4301 30.9993C20.1308 29.8149 20.1206 29.8734 19.7427 29.2499C19.5051 28.8575 17.9706 26.2028 17.3731 25.15C16.5667 23.73 14.9717 21.0456 14.9341 21.0456C14.919 21.0456 14.8594 21.1211 14.8013 21.2134ZM21.6116 30.869C21.5454 30.9456 21.4067 31.1596 21.3033 31.3444C21.1995 31.5289 20.9358 31.9825 20.7168 32.3518C20.498 32.7213 20.2332 33.1746 20.1284 33.3594C20.0238 33.5439 19.9123 33.7287 19.8808 33.7696C19.8494 33.8108 19.6293 34.1801 19.3919 34.5906C19.1546 35.0011 18.7783 35.6405 18.556 36.0117C18.3337 36.3828 18.0743 36.8239 17.9797 36.9917C17.6851 37.5154 16.7581 39.1064 16.6253 39.3161C16.5557 39.4262 16.4963 39.5416 16.4933 39.5727C16.4901 39.6038 18.8164 39.6205 21.6629 39.6099L26.8384 39.5908L28.3122 37.0908C29.1228 35.7158 29.8459 34.4899 29.9187 34.3668C29.9918 34.2437 30.2361 33.8239 30.4622 33.4338C31.4658 31.7017 31.747 31.2277 31.811 31.1615C31.8935 31.0759 31.9021 30.8223 31.8228 30.8212C23.7283 30.7228 21.729 30.7321 21.6116 30.869Z" fill="white"/>
<path d="M80.648 15.104C80.648 13.424 79.664 11.816 77.552 11.408V11.36C79.208 10.784 80.312 9.32 80.312 7.664C80.312 5.168 78.488 3.728 74.96 3.728C72.992 3.728 71.144 3.776 69.872 3.8V20C71.672 20.024 73.304 20.072 74.288 20.072C79.256 20.072 80.648 17.216 80.648 15.104ZM77.576 8.072C77.576 9.704 76.304 10.688 73.88 10.688C73.328 10.688 72.92 10.688 72.488 10.664V5.864C73.112 5.84 73.808 5.816 74.528 5.816C76.832 5.816 77.576 6.752 77.576 8.072ZM77.888 15.152C77.888 16.784 76.76 17.936 74.384 17.936C73.544 17.936 72.896 17.888 72.488 17.816V12.656C72.848 12.632 73.688 12.632 73.952 12.632C76.232 12.632 77.888 13.304 77.888 15.152ZM86.2213 20V2.48H83.6533V20H86.2213ZM100.35 13.808C100.35 9.608 98.0939 7.832 94.9019 7.832C91.2779 7.832 88.9499 10.592 88.9499 14.192C88.9499 18.392 91.1099 20.24 94.4219 20.24C97.9499 20.24 100.35 17.48 100.35 13.808ZM97.7099 13.976C97.7099 16.736 96.3179 18.032 94.6619 18.032C92.6699 18.032 91.6139 16.616 91.6139 13.928C91.6139 11.192 93.1259 9.992 94.6859 9.992C96.7259 9.992 97.7099 11.432 97.7099 13.976ZM110.834 19.592L110.618 17.408C109.922 17.768 108.938 17.984 108.026 17.984C105.65 17.984 104.858 16.328 104.858 14.144C104.858 11.624 105.962 10.016 108.146 10.016C109.01 10.016 109.826 10.208 110.546 10.472L110.81 8.24C110.018 8 109.106 7.88 108.218 7.88C104.114 7.88 102.17 10.64 102.17 14.432C102.17 18.68 104.402 20.192 107.474 20.192C108.794 20.192 110.042 19.904 110.834 19.592ZM123.378 20L118.626 13.52L123.042 8.072H119.898L116.034 13.184V2.48H113.466V20H116.034V13.952L120.114 20H123.378ZM132.865 19.592L132.649 17.408C131.953 17.768 130.969 17.984 130.057 17.984C127.681 17.984 126.889 16.328 126.889 14.144C126.889 11.624 127.993 10.016 130.177 10.016C131.041 10.016 131.857 10.208 132.577 10.472L132.841 8.24C132.049 8 131.137 7.88 130.249 7.88C126.145 7.88 124.201 10.64 124.201 14.432C124.201 18.68 126.433 20.192 129.505 20.192C130.825 20.192 132.073 19.904 132.865 19.592ZM145.505 20V11.648C145.505 9.536 144.665 7.832 141.953 7.832C140.009 7.832 138.593 8.816 137.897 10.304L137.849 10.28C138.017 9.632 138.065 8.624 138.065 7.88V2.48H135.497V20H138.065V14.264C138.065 11.864 139.385 9.968 141.185 9.968C142.553 9.968 142.961 10.832 142.961 12.32V20H145.505ZM158.087 20C158.039 18.992 158.015 17.768 158.015 16.736V11.864C158.015 9.416 157.007 7.832 153.359 7.832C151.823 7.832 150.335 8.168 149.159 8.624L149.399 10.808C150.407 10.184 151.847 9.848 152.951 9.848C154.823 9.848 155.447 10.616 155.447 12.104V12.872C151.151 12.872 148.415 14.456 148.415 17.192C148.415 19.088 149.711 20.24 151.751 20.24C153.647 20.24 155.135 19.184 155.711 17.768L155.735 17.792C155.639 18.44 155.615 19.232 155.615 20H158.087ZM155.447 14.84C155.447 16.544 154.271 18.224 152.519 18.224C151.511 18.224 150.887 17.648 150.887 16.76C150.887 15.728 151.703 14.6 155.447 14.6V14.84ZM164.745 4.688C164.745 3.776 164.001 3.08 163.113 3.08C162.201 3.08 161.457 3.8 161.457 4.688C161.457 5.576 162.201 6.296 163.113 6.296C164.001 6.296 164.745 5.576 164.745 4.688ZM164.385 20V8.072H161.817V20H164.385ZM178.13 20V11.648C178.13 9.536 177.29 7.832 174.578 7.832C172.562 7.832 171.122 8.888 170.426 10.424L170.402 10.4C170.522 9.728 170.57 8.696 170.57 8.072H168.122V20H170.69V14.24C170.69 11.864 172.01 9.968 173.81 9.968C175.178 9.968 175.586 10.832 175.586 12.32V20H178.13ZM203.138 18.56C202.274 17.96 201.05 17.072 199.922 16.184C201.386 14.264 202.178 11.72 202.106 9.104H199.562C199.658 11.288 199.034 13.304 198.026 14.792V14.768C196.298 13.4 194.426 11.648 193.13 10.328C195.194 8.696 196.058 7.28 196.058 5.624C196.058 3.632 194.642 2.216 192.026 2.216C189.146 2.216 187.538 3.992 187.538 6.032C187.538 7.376 188.114 8.528 189.698 10.376C187.778 11.864 186.482 13.376 186.482 15.536C186.482 18.152 188.234 20.264 191.834 20.264C194.426 20.264 196.562 19.328 198.122 18.032C199.01 18.752 200.354 19.736 201.458 20.528L203.138 18.56ZM193.538 5.84C193.538 6.968 192.866 7.88 191.666 8.864C190.49 7.496 190.082 6.632 190.082 5.912C190.082 4.88 190.802 4.184 191.834 4.184C193.01 4.184 193.538 4.928 193.538 5.84ZM196.274 16.616C195.314 17.408 193.97 18.08 192.266 18.08C190.322 18.08 189.122 16.736 189.122 15.2C189.122 14.096 189.722 13.112 191.186 11.912C192.41 13.232 194.45 15.152 196.274 16.616ZM224.707 11.672C224.707 6.056 221.562 3.728 216.451 3.728C214.579 3.728 212.707 3.8 211.435 3.824V20C212.707 20.024 214.075 20.096 215.73 20.096C221.011 20.096 224.707 17.24 224.707 11.672ZM221.923 11.864C221.923 16.016 219.475 17.864 215.995 17.864C215.371 17.864 214.579 17.816 214.051 17.744V5.96C214.627 5.912 215.467 5.888 216.259 5.888C220.219 5.888 221.923 8.024 221.923 11.864ZM235.767 20V17.72H230.199V3.8H227.583V20H235.767ZM245.866 6.008V3.8H234.346V6.008H238.786V20H241.402V6.008H245.866ZM80.168 44L75.104 37.976C74.672 37.448 74.12 36.824 73.64 36.296C76.736 36.248 79.16 34.688 79.16 31.712C79.16 28.736 76.856 27.728 73.928 27.728C72.224 27.728 71.288 27.752 70.304 27.8V44H71.84V36.344H71.912L78.128 44H80.168ZM77.552 31.976C77.552 33.848 76.04 35.168 73.4 35.168C72.632 35.168 72.128 35.144 71.84 35.12V29.024C72.368 28.976 72.872 28.952 73.496 28.952C76.088 28.952 77.552 29.72 77.552 31.976ZM91.9027 36.68C91.9027 34.112 90.5587 31.88 87.3187 31.88C84.0787 31.88 82.1587 34.52 82.1587 38.072C82.1587 42.272 84.0547 44.192 87.6067 44.192C89.0947 44.192 90.3907 43.928 91.4707 43.496L91.3267 42.152C90.4627 42.584 89.1187 42.92 87.8707 42.92C85.0867 42.92 83.6227 41.336 83.7667 37.472H91.8547C91.9027 37.136 91.9027 36.848 91.9027 36.68ZM90.2947 36.296H83.8627C84.1987 34.304 85.4467 33.032 87.2227 33.032C89.1667 33.032 90.3427 34.376 90.2947 36.296ZM102.077 40.496C102.077 36.368 96.029 38.192 96.029 35.12C96.029 33.872 96.989 33.08 98.837 33.08C99.677 33.08 100.565 33.248 101.357 33.488L101.429 32.144C100.661 31.976 99.797 31.88 99.053 31.88C96.101 31.88 94.493 33.344 94.493 35.288C94.493 39.584 100.517 37.664 100.517 40.712C100.517 42.08 99.221 42.896 97.373 42.896C96.437 42.896 95.453 42.728 94.685 42.512L94.637 43.952C95.357 44.12 96.269 44.192 97.181 44.192C100.253 44.192 102.077 42.536 102.077 40.496ZM114.309 36.68C114.309 34.112 112.965 31.88 109.725 31.88C106.485 31.88 104.565 34.52 104.565 38.072C104.565 42.272 106.461 44.192 110.013 44.192C111.501 44.192 112.797 43.928 113.877 43.496L113.733 42.152C112.869 42.584 111.525 42.92 110.277 42.92C107.493 42.92 106.029 41.336 106.173 37.472H114.261C114.309 37.136 114.309 36.848 114.309 36.68ZM112.701 36.296H106.269C106.605 34.304 107.853 33.032 109.629 33.032C111.573 33.032 112.749 34.376 112.701 36.296ZM125.707 44C125.683 42.92 125.659 41.528 125.659 40.304V35.72C125.659 33.512 124.771 31.88 121.603 31.88C119.995 31.88 118.627 32.264 117.499 32.792L117.667 34.16C118.723 33.464 120.163 33.104 121.315 33.104C123.451 33.104 124.147 34.184 124.147 36.128V37.184C119.347 37.184 116.803 38.936 116.803 41.36C116.803 43.256 118.195 44.192 120.043 44.192C122.131 44.192 123.691 42.92 124.267 41.36L124.315 41.384C124.195 42.08 124.171 43.04 124.171 44H125.707ZM124.147 38.504C124.147 40.688 122.659 42.944 120.403 42.944C119.155 42.944 118.339 42.224 118.339 41.048C118.339 39.872 119.371 38.336 124.147 38.336V38.504ZM135.873 31.88C133.257 31.568 132.009 33.44 131.553 35.216L131.505 35.192C131.721 34.136 131.817 32.912 131.817 32.072H130.281V44H131.793V39.248C131.793 35.096 133.089 32.912 135.801 33.344L135.873 31.88ZM145.996 43.448L145.852 42.128C145.012 42.56 143.812 42.848 142.684 42.848C139.636 42.848 138.868 40.712 138.868 38.144C138.868 35.12 140.212 33.104 142.9 33.104C143.956 33.104 144.964 33.344 145.78 33.68L145.948 32.336C145.084 32.072 144.052 31.928 143.068 31.928C139.228 31.928 137.26 34.496 137.26 38.456C137.26 43.064 139.852 44.144 142.372 44.144C143.884 44.144 145.204 43.76 145.996 43.448ZM158.389 44V35.696C158.389 33.56 157.549 31.856 154.789 31.856C152.701 31.856 151.165 33.032 150.469 34.88L150.421 34.856C150.565 34.256 150.613 33.296 150.613 32.48V26.48H149.101V44H150.613V38.288C150.613 35.288 152.197 33.08 154.453 33.08C156.325 33.08 156.877 34.256 156.877 36.248V44H158.389ZM179.962 28.28C178.498 27.824 177.082 27.608 175.594 27.608C170.29 27.608 167.074 31.304 167.074 36.2C167.074 41.264 170.29 44.192 175.042 44.192C176.674 44.192 178.618 43.904 180.25 43.304V35.912H178.714V42.368C177.658 42.704 176.578 42.896 175.282 42.896C171.394 42.896 168.706 40.424 168.706 35.936C168.706 31.136 171.922 28.88 175.402 28.88C176.818 28.88 178.33 29.192 179.722 29.744L179.962 28.28ZM190.294 31.88C187.678 31.568 186.43 33.44 185.974 35.216L185.926 35.192C186.142 34.136 186.238 32.912 186.238 32.072H184.702V44H186.214V39.248C186.214 35.096 187.51 32.912 190.222 33.344L190.294 31.88ZM202.739 37.856C202.739 33.416 200.315 31.88 197.531 31.88C193.955 31.88 191.939 34.736 191.939 38.072C191.939 42.248 193.955 44.192 197.123 44.192C200.627 44.192 202.739 41.336 202.739 37.856ZM201.179 37.928C201.179 41.432 199.355 42.944 197.387 42.944C194.915 42.944 193.523 41.12 193.523 37.952C193.523 34.616 195.395 33.104 197.363 33.104C199.883 33.104 201.179 34.928 201.179 37.928ZM215.436 44V32.072H213.924V37.784C213.924 40.784 212.34 42.992 210.084 42.992C208.188 42.992 207.66 41.816 207.66 39.824V32.072H206.148V40.376C206.148 42.512 206.988 44.216 209.748 44.216C211.86 44.216 213.396 43.04 214.068 41.216L214.116 41.24C213.972 41.984 213.9 43.184 213.9 44H215.436ZM229.982 37.496C229.982 33.776 228.374 31.88 225.566 31.88C223.646 31.88 222.086 33.032 221.414 34.832L221.366 34.808C221.534 34.088 221.582 32.84 221.582 32.072H220.046V50.024H221.558V43.976C222.422 44.096 223.046 44.12 223.934 44.12C227.582 44.12 229.982 41.816 229.982 37.496ZM228.398 37.64C228.398 41.384 226.67 42.944 224.054 42.944C223.094 42.944 222.302 42.848 221.558 42.584V38.24C221.558 36.104 222.758 33.104 225.326 33.104C227.438 33.104 228.398 34.808 228.398 37.64Z" fill="white"/>
</svg>
